# xmcd
#
# Track frame offsets: 
#        150
#        9447
#        21763
#        35039
#        52316
#        66319
#        80096
#        102042
#        117179
#        135142
#        148392
#        161895
#        175662
#        191350
#        206458
#        221577
#
# Disc length: 3240 seconds
#
# Revision: 0
# Processed by: cddbd v1.5.2PL0 Copyright (c) Steve Scherf et al.
# Submitted via: ExactAudioCopy v0.99pb5
#
DISCID=e50ca610
DTITLE=Various Artist - 100 70'er Hits [CD1]
DYEAR=2009
DGENRE=Rock
TTITLE0=Bill Withers - Ain't No Sunshine
TTITLE1=Gasolin' - Kvinde Min
TTITLE2=Elvis Presley - Burning Love
TTITLE3=Dr. Hook and The Medicine Show - Sylvia's Mother
TTITLE4=Hues Corporation - Rock The Boat
TTITLE5=Tina Charles - I Love To Love
TTITLE6=Meat Loaf - Bat Out Of Hell
TTITLE7=Boston - More Than A Feeling
TTITLE8=Bifrost - Faldet
TTITLE9=The O'Jays - Love Train
TTITLE10=Andrea True Connection - More, More, More
TTITLE11=The Outlaws - There Goes Another Love Song
TTITLE12=Melba Moore - This Is It
TTITLE13=The Alan Parsons Project - I Wouldn't Want To Be Like You
TTITLE14=The Patti Smith Group - Because The Night
TTITLE15=Stig Møller - To Sjæle
EXTD=
EXTT0=
EXTT1=
EXTT2=
EXTT3=
EXTT4=
EXTT5=
EXTT6=
EXTT7=
EXTT8=
EXTT9=
EXTT10=
EXTT11=
EXTT12=
EXTT13=
EXTT14=
EXTT15=
PLAYORDER=
